{"accessors" : [{"bufferView" : 0, "byteOffset" : 0, "componentType" : 5123, "count" : 2337, "type" : "SCALAR", "max" : [2241], "min" : [0]}, {"bufferView" : 1, "byteOffset" : 0, "componentType" : 5126, "count" : 2242, "type" : "VEC3", "max" : [24.114051818847656, 3.1433258056640625, 27.02199935913086], "min" : [-43.152610778808594, -2.1566696166992188, -34.24467086791992], "name" : "POSITION"}, {"bufferView" : 1, "byteOffset" : 12, "componentType" : 5126, "count" : 2242, "type" : "VEC3", "max" : [0.8744500875473022, 1.0000044107437134, 0.9489968419075012], "min" : [-0.41628286242485046, 0.10377754271030426, -0.8790082335472107], "name" : "NORMAL"}], "asset" : {"generator" : "Aspose.3D 21.11", "version" : "2.0"}, "buffers" : [{"uri" : "data:application/octet-stream;base64,", "byteLength" : 60772}], "bufferViews" : [{"buffer" : 0, "byteOffset" : 0, "byteLength" : 4676, "target" : 34963}, {"buffer" : 0, "byteOffset" : 4680, "byteLength" : 56088, "byteStride" : 24, "target" : 34962}], "materials" : [{"name" : "pPlane1Mat.001", "pbrMetallicRoughness" : {"baseColorFactor" : [0.9063317179679871, 0.9063317179679871, 0.9063317179679871, 1], "metallicFactor" : 0, "roughnessFactor" : 1}, "emissiveFactor" : [0, 0, 0], "alphaMode" : "OPAQUE", "doubleSided" : false}], "meshes" : [{"primitives" : [{"attributes" : {"POSITION" : 1, "NORMAL" : 2}, "indices" : 0, "material" : 0, "mode" : 4}]}], "nodes" : [{"matrix" : [-1, 0, 0, 0, 0, 1, 0, 0, 0, 0, 1, 0, 1.884143590927124, 0, -2.8678979873657227, 1], "mesh" : 0, "name" : "pPlane1"}], "scene" : 0, "scenes" : [{"nodes" : [0]}]}